<svg width="24" height="24" viewBox="0 0 24 24" fill="none" xmlns="http://www.w3.org/2000/svg">
<path fill-rule="evenodd" clip-rule="evenodd" d="M16.3438 9.34375C16.8854 9.34375 17.3542 9.53646 17.75 9.92188C18.1458 10.3073 18.3438 10.7812 18.3438 11.3438V15.3438H15.6562V18H7.65625V15.3438H5V11.3438C5 10.7812 5.19271 10.3073 5.57812 9.92188C5.96354 9.53646 6.4375 9.34375 7 9.34375H16.3438ZM14.3438 16.6562V13.3438H9V16.6562H14.3438ZM16.3281 12C16.5052 12 16.6615 11.9323 16.7969 11.7969C16.9323 11.6615 17 11.5052 17 11.3281C17 11.151 16.9323 10.9948 16.7969 10.8594C16.6615 10.724 16.5052 10.6562 16.3281 10.6562C16.151 10.6562 15.9948 10.724 15.8594 10.8594C15.724 10.9948 15.6562 11.151 15.6562 11.3281C15.6562 11.5052 15.724 11.6615 15.8594 11.7969C15.9948 11.9323 16.151 12 16.3281 12ZM15.6562 6V8.65625H7.65625V6H15.6562Z" fill="#333333"/>
<mask id="mask0" mask-type="alpha" maskUnits="userSpaceOnUse" x="5" y="6" width="14" height="12">
<path fill-rule="evenodd" clip-rule="evenodd" d="M16.3438 9.34375C16.8854 9.34375 17.3542 9.53646 17.75 9.92188C18.1458 10.3073 18.3438 10.7812 18.3438 11.3438V15.3438H15.6562V18H7.65625V15.3438H5V11.3438C5 10.7812 5.19271 10.3073 5.57812 9.92188C5.96354 9.53646 6.4375 9.34375 7 9.34375H16.3438ZM14.3438 16.6562V13.3438H9V16.6562H14.3438ZM16.3281 12C16.5052 12 16.6615 11.9323 16.7969 11.7969C16.9323 11.6615 17 11.5052 17 11.3281C17 11.151 16.9323 10.9948 16.7969 10.8594C16.6615 10.724 16.5052 10.6562 16.3281 10.6562C16.151 10.6562 15.9948 10.724 15.8594 10.8594C15.724 10.9948 15.6562 11.151 15.6562 11.3281C15.6562 11.5052 15.724 11.6615 15.8594 11.7969C15.9948 11.9323 16.151 12 16.3281 12ZM15.6562 6V8.65625H7.65625V6H15.6562Z" fill="white"/>
</mask>
<g mask="url(#mask0)">
<rect x="-24" y="-24" width="72" height="72" fill="white"/>
</g>
</svg>
