<svg width="24" height="23" viewBox="0 0 24 23" fill="none" xmlns="http://www.w3.org/2000/svg">
<path d="M2.29602 1.79374C2.29602 1.13671 2.91884 0.658211 3.55368 0.827503L11.434 2.92891C11.8717 3.04564 12.1763 3.44209 12.1763 3.89514V21.1467C12.1763 21.8037 11.5535 22.2822 10.9186 22.1129L3.03836 20.0115C2.60061 19.8948 2.29602 19.4983 2.29602 19.0453V1.79374Z" fill="#0424D9"/>
<path d="M2.79602 1.49213C2.79602 1.21598 3.01988 0.992126 3.29602 0.992126H16.6653C16.9415 0.992126 17.1653 1.21598 17.1653 1.49213V19.2527C17.1653 19.5288 16.9415 19.7527 16.6653 19.7527H3.29602C3.01988 19.7527 2.79602 19.5288 2.79602 19.2527V1.49213Z" stroke="#0424D9"/>
<path d="M23.5079 10.7259C23.7032 10.5307 23.7032 10.2141 23.5079 10.0188L20.3259 6.83684C20.1307 6.64158 19.8141 6.64158 19.6188 6.83684C19.4236 7.0321 19.4236 7.34869 19.6188 7.54395L22.4473 10.3724L19.6188 13.2008C19.4236 13.3961 19.4236 13.7126 19.6188 13.9079C19.8141 14.1032 20.1307 14.1032 20.3259 13.9079L23.5079 10.7259ZM11.0785 10.8724H23.1544V9.87238H11.0785V10.8724Z" fill="#0424D9"/>
</svg>
