<svg width="22" height="23" viewBox="0 0 22 23" fill="none" xmlns="http://www.w3.org/2000/svg">
<path d="M0.296021 1.79374C0.296021 1.13671 0.918837 0.658211 1.55368 0.827503L9.43395 2.92891C9.87171 3.04564 10.1763 3.44209 10.1763 3.89514V21.1467C10.1763 21.8037 9.55347 22.2822 8.91863 22.1129L1.03836 20.0115C0.600605 19.8948 0.296021 19.4983 0.296021 19.0453V1.79374Z" fill="#FCFAFC"/>
<path d="M0.796021 1.49213C0.796021 1.21598 1.01988 0.992126 1.29602 0.992126H14.6653C14.9415 0.992126 15.1653 1.21598 15.1653 1.49213V19.2527C15.1653 19.5288 14.9415 19.7527 14.6653 19.7527H1.29602C1.01988 19.7527 0.796021 19.5288 0.796021 19.2527V1.49213Z" stroke="#FCFAFC"/>
<path d="M21.5079 10.7259C21.7032 10.5307 21.7032 10.2141 21.5079 10.0188L18.3259 6.83684C18.1307 6.64158 17.8141 6.64158 17.6188 6.83684C17.4236 7.0321 17.4236 7.34869 17.6188 7.54395L20.4473 10.3724L17.6188 13.2008C17.4236 13.3961 17.4236 13.7126 17.6188 13.9079C17.8141 14.1032 18.1307 14.1032 18.3259 13.9079L21.5079 10.7259ZM9.07849 10.8724H21.1544V9.87238H9.07849V10.8724Z" fill="#FCFAFC"/>
</svg>
