<svg width="22" height="23" viewBox="0 0 22 23" fill="none" xmlns="http://www.w3.org/2000/svg">
<path d="M13.7685 16.0735L10.1239 13.3838C11.3387 12.4425 12.1486 11.0976 12.1486 9.48383V8.40797C12.1486 5.8528 10.2589 3.56659 7.69414 3.43211C4.99444 3.29763 2.6997 5.44935 2.6997 8.13901V9.48383C2.6997 11.0976 3.50961 12.4425 4.72447 13.3838L1.07988 16.208C0.404955 16.7459 0 17.5528 0 18.3597V20.9149C0 21.7218 0.53994 22.2597 1.34985 22.2597H13.4985C14.3084 22.2597 14.8483 21.7218 14.8483 20.9149V18.2252C14.8483 17.4183 14.4434 16.6114 13.7685 16.0735Z" fill="#FCFAFC"/>
<path d="M20.3827 9.34935L17.953 7.73556C18.4929 7.19763 18.8979 6.39073 18.8979 5.44935V4.23901C18.8979 2.62521 17.683 1.01142 16.0632 0.742454C14.4434 0.473488 13.0935 1.41487 12.4186 2.62521C13.9034 3.97004 14.8483 5.8528 14.8483 8.00452V9.34935C14.8483 10.5597 14.5783 11.77 14.0384 12.7114C14.0384 12.7114 15.6582 13.9218 15.6582 14.0562H20.2477C21.0576 14.0562 21.5976 13.5183 21.5976 12.7114V11.6356C21.5976 10.6942 21.1926 9.88728 20.3827 9.34935Z" fill="#FCFAFC"/>
</svg>
