<svg width="132" height="30" viewBox="0 0 132 30" fill="none" xmlns="http://www.w3.org/2000/svg">
<path d="M5.95166 23H0.653809V0.960938H5.95166V23ZM14.0952 6.62207L14.2617 8.54443C15.3919 7.06104 16.951 6.31934 18.939 6.31934C20.6444 6.31934 21.9159 6.82894 22.7534 7.84814C23.6011 8.86735 24.04 10.4012 24.0703 12.4497V23H18.9541V12.6616C18.9541 11.8341 18.7876 11.2287 18.4546 10.8452C18.1216 10.4517 17.5161 10.2549 16.6382 10.2549C15.6392 10.2549 14.8975 10.6484 14.4131 11.4355V23H9.31201V6.62207H14.0952ZM33.4399 16.9302L36.0283 6.62207H41.4019L36.0586 23H30.8516L25.5083 6.62207H30.897L33.4399 16.9302ZM50.6353 23.3027C48.1226 23.3027 46.0892 22.556 44.5352 21.0625C42.9811 19.5589 42.2041 17.6063 42.2041 15.2046V14.7808C42.2041 13.1056 42.5119 11.6273 43.1274 10.3457C43.7531 9.06413 44.6613 8.0752 45.8521 7.37891C47.0428 6.67253 48.4556 6.31934 50.0903 6.31934C52.3911 6.31934 54.2075 7.03581 55.5396 8.46875C56.8716 9.8916 57.5376 11.8796 57.5376 14.4326V16.4155H47.396C47.5776 17.3338 47.9762 18.0553 48.5918 18.5801C49.2074 19.1048 50.0046 19.3672 50.9834 19.3672C52.598 19.3672 53.8594 18.8021 54.7676 17.6719L57.0986 20.4268C56.4629 21.3047 55.5597 22.006 54.3892 22.5308C53.2287 23.0454 51.9774 23.3027 50.6353 23.3027ZM50.0601 10.2549C48.5666 10.2549 47.6785 11.2438 47.396 13.2217H52.5425V12.8281C52.5627 12.0107 52.3558 11.38 51.9219 10.936C51.488 10.4819 50.8674 10.2549 50.0601 10.2549ZM64.2886 6.62207L64.4551 8.54443C65.5853 7.06104 67.1444 6.31934 69.1323 6.31934C70.8377 6.31934 72.1092 6.82894 72.9468 7.84814C73.7944 8.86735 74.2334 10.4012 74.2637 12.4497V23H69.1475V12.6616C69.1475 11.8341 68.981 11.2287 68.6479 10.8452C68.3149 10.4517 67.7095 10.2549 66.8315 10.2549C65.8325 10.2549 65.0908 10.6484 64.6064 11.4355V23H59.5054V6.62207H64.2886ZM83.043 2.55029V6.62207H85.7373V10.1641H83.043V17.6567C83.043 18.2723 83.154 18.7012 83.376 18.9434C83.598 19.1855 84.0369 19.3066 84.6929 19.3066C85.1974 19.3066 85.6213 19.2764 85.9644 19.2158V22.8638C85.0461 23.1564 84.0874 23.3027 83.0884 23.3027C81.3325 23.3027 80.0358 22.889 79.1982 22.0615C78.3607 21.234 77.9419 19.9777 77.9419 18.2925V10.1641H75.853V6.62207H77.9419V2.55029H83.043ZM86.6606 14.6597C86.6606 13.0249 86.9785 11.5718 87.6143 10.3003C88.25 9.01872 89.1632 8.03483 90.354 7.34863C91.5448 6.66243 92.9424 6.31934 94.5469 6.31934C96.999 6.31934 98.9315 7.08122 100.344 8.60498C101.757 10.1187 102.463 12.1823 102.463 14.7959V14.9775C102.463 17.5306 101.752 19.5589 100.329 21.0625C98.9163 22.556 96.999 23.3027 94.5771 23.3027C92.2461 23.3027 90.3742 22.6064 88.9614 21.2139C87.5487 19.8112 86.7868 17.9141 86.6758 15.5225L86.6606 14.6597ZM91.7617 14.9775C91.7617 16.4912 91.9989 17.6012 92.4731 18.3076C92.9474 19.014 93.6488 19.3672 94.5771 19.3672C96.3936 19.3672 97.3219 17.9696 97.3623 15.1743V14.6597C97.3623 11.7231 96.4238 10.2549 94.5469 10.2549C92.8415 10.2549 91.9181 11.5213 91.7769 14.0542L91.7617 14.9775ZM114.618 11.2388L112.938 11.1177C111.333 11.1177 110.304 11.6222 109.85 12.6313V23H104.749V6.62207H109.532L109.699 8.72607C110.556 7.12158 111.752 6.31934 113.286 6.31934C113.831 6.31934 114.305 6.37988 114.709 6.50098L114.618 11.2388ZM123.276 15.8555L126.001 6.62207H131.465L124.79 25.7397L124.502 26.436C123.554 28.5552 121.879 29.6147 119.477 29.6147C118.811 29.6147 118.11 29.5138 117.373 29.312V25.6641H118.039C118.756 25.6641 119.3 25.5581 119.674 25.3462C120.057 25.1444 120.34 24.776 120.521 24.2412L120.93 23.1514L115.239 6.62207H120.688L123.276 15.8555Z" fill="#0424D9"/>
</svg>
